<?xml version="1.0" encoding="UTF-8"?>
<svg width="310px" height="61px" viewBox="0 0 310 61" version="1.1" xmlns="http://www.w3.org/2000/svg" xmlns:xlink="http://www.w3.org/1999/xlink">
    <title>logo</title>
    <g id="Page-1" stroke="none" stroke-width="1" fill="none" fill-rule="evenodd">
        <g id="logo">
            <text id="TSECORE" font-family="Swiss721BT-Heavy, Swis721 Hv BT" font-size="48" font-weight="600" fill="#FFFFFF">
                <tspan x="74" y="48">TSECORE</tspan>
            </text>
            <g id="iconfinder_Settings_408409" fill-rule="nonzero">
                <path d="M62,48.8 C62,55.5376908 56.4481082,61 49.6003263,61 L12.4000816,61 C5.55189179,61 0,55.5376908 0,48.8 L0,12.2 C0,5.46190789 5.55189179,0 12.4000816,0 L49.5999184,0 C56.4477003,0 62,5.46190789 62,12.1995987 L62,48.8 L62,48.8 Z" id="Path" fill="#ADD79C"></path>
                <path d="M51.8978427,33.9900534 C50.5913085,32.9800808 49.2847743,31.9705104 47.9778379,30.9613423 C48.0643234,29.9976249 48.0691505,29.0214387 47.9822628,28.0428392 C49.2883947,27.033671 50.5945266,26.0249051 51.9010607,25.0161392 C53.6299658,23.6799667 52.9766988,22.6595364 52.2514275,20.9086759 C51.5265585,19.1578154 51.2666998,17.9744863 49.0989311,18.2524198 C47.4617408,18.4623783 45.8245506,18.672739 44.1877625,18.8826974 C43.5570219,18.1289385 42.8631268,17.4423502 42.1205584,16.8217259 C42.1209607,16.8205192 42.1217652,16.8193126 42.1221674,16.8181059 C42.3321461,15.1790624 42.5425271,13.540421 42.7525058,11.9009753 C43.0304661,9.73301339 41.8470229,9.47358196 40.0959936,8.7483806 C38.3453666,8.02358147 37.3244356,7.36997515 35.9885366,9.09951803 C34.9780644,10.4071329 33.9679944,11.7147478 32.9575222,13.0219604 C32.9567177,13.0235693 32.9563154,13.0251782 32.9555109,13.0271892 C31.9937119,12.9415165 31.0194429,12.9362877 30.0427603,13.0231671 C30.0427603,13.0227648 30.0423581,13.0223626 30.0423581,13.0219604 C29.0318858,11.7147478 28.0222181,10.4071329 27.0117459,9.09951803 C25.6754446,7.36997515 24.6549159,8.02317925 22.9038866,8.7483806 C21.1528573,9.47358196 19.9694141,9.73301339 20.2473744,11.9009753 C20.4573532,13.5400188 20.6681364,15.1786601 20.8781151,16.8181059 C20.8781151,16.8185081 20.8785173,16.8185081 20.8785173,16.8189103 C20.1254903,17.4487857 19.4396403,18.1422118 18.8197606,18.8839041 C18.8193584,18.8839041 18.8193584,18.8835019 18.8189561,18.8835019 C17.1797545,18.6735434 15.5409552,18.4623783 13.9013514,18.2524198 C11.7331805,17.9744863 11.473724,19.1574132 10.7484528,20.9086759 C10.0231815,22.6591342 9.36991441,23.6799667 11.099624,25.0157369 C12.407365,26.0261118 13.7151059,27.0360844 15.0224446,28.0464592 C15.0232491,28.0468614 15.0236514,28.0468614 15.0244559,28.0472636 C14.9383726,29.0097743 14.9335456,29.9847539 15.0204333,30.9621467 C13.7147036,31.9717171 12.4077672,32.9808852 11.1020376,33.989249 C9.37232795,35.3258236 10.0251928,36.3454495 10.7508663,38.0971144 C11.4757353,39.8471705 11.735594,41.031304 13.9033627,40.7525661 C15.5401507,40.5430098 17.1785478,40.3326491 18.8153358,40.1230929 C19.4448696,40.8752429 20.137558,41.5610268 20.8789196,42.1804445 C20.8785173,42.1812489 20.8781151,42.1816512 20.8781151,42.1820534 C20.6681364,43.8206947 20.4573532,45.4601405 20.2473744,47.099184 C19.9694141,49.2667437 21.1528573,49.5257729 22.9038866,50.2517787 C24.6545137,50.97698 25.6754446,51.6297819 27.0113436,49.9006413 C28.0218159,48.5934286 29.0318858,47.2850093 30.0419558,45.9777967 C31.0057661,46.0638716 31.9820464,46.0691004 32.9611425,45.9822211 C33.970408,47.2886293 34.9792712,48.5950375 35.9881344,49.9006413 C37.3244356,51.6297819 38.3449643,50.97698 40.0959936,50.2517787 C41.8466207,49.5265773 43.0304661,49.2675481 42.7525058,47.099184 C42.5429294,45.4625538 42.3321461,43.8247169 42.1225697,42.1876844 C42.8755968,41.5578091 43.561849,40.864383 44.1821309,40.1226907 C45.8193212,40.3326491 47.4585228,40.5430098 49.0965176,40.7533705 C51.2642862,41.031304 51.5241449,39.8479749 52.2490139,38.0971144 C52.9742852,36.3462539 53.6283568,35.3258236 51.8978427,33.9900534 Z M22.8157921,33.1003444 C20.8290396,28.3034773 23.107027,22.8043354 27.903552,20.8177744 C32.700077,18.8312134 38.2001514,21.1085789 40.1869039,25.9050438 C42.1736565,30.7015086 39.8960714,36.2006505 35.0991441,38.1872115 C30.3022168,40.1741748 24.8029469,37.896407 22.8157921,33.1003444 Z" id="Shape" fill="#FFFFFF"></path>
            </g>
        </g>
    </g>
</svg>